<svg xmlns="http://www.w3.org/2000/svg" width="22.476" height="23.07" viewBox="0 0 22.476 23.07">
  <path id="Path_11" data-name="Path 11" d="M28.969,24.764c-1.083-1.427-3.213-2.264-3.213-8.655,0-6.56-2.9-9.2-5.6-9.83-.253-.063-.436-.148-.436-.415v-.2a1.725,1.725,0,0,0-1.687-1.73h-.042a1.725,1.725,0,0,0-1.687,1.73v.2c0,.26-.183.352-.436.415-2.707.64-5.6,3.27-5.6,9.83,0,6.391-2.13,7.221-3.213,8.655A1.4,1.4,0,0,0,8.177,27H27.872A1.4,1.4,0,0,0,28.969,24.764Zm-2.742.408H9.83a.308.308,0,0,1-.232-.513,8.518,8.518,0,0,0,1.477-2.348,15.934,15.934,0,0,0,1.005-6.2,10.783,10.783,0,0,1,1.47-6.1A4.512,4.512,0,0,1,16.27,8.065a2.464,2.464,0,0,0,1.308-.738.556.556,0,0,1,.837-.014,2.547,2.547,0,0,0,1.322.752,4.512,4.512,0,0,1,2.721,1.941,10.783,10.783,0,0,1,1.47,6.1,15.934,15.934,0,0,0,1.005,6.2,8.615,8.615,0,0,0,1.512,2.384A.291.291,0,0,1,26.227,25.172Z" transform="translate(-6.775 -3.93)" fill="#fff"/>
</svg>
